<?xml version="1.0" standalone="no"?>
<!DOCTYPE svg PUBLIC "-//W3C//DTD SVG 20010904//EN"
 "http://www.w3.org/TR/2001/REC-SVG-20010904/DTD/svg10.dtd">
<svg version="1.0" xmlns="http://www.w3.org/2000/svg"
 width="1024.000000pt" height="1024.000000pt" viewBox="0 0 1024.000000 1024.000000"
 preserveAspectRatio="xMidYMid meet">

<g transform="translate(0.000000,1024.000000) scale(0.100000,-0.100000)"
fill="#000000" stroke="none">
<path d="M3779 9043 c-40 -38 -93 -90 -118 -117 -157 -166 -296 -418 -347
-628 -23 -97 -31 -585 -14 -882 l12 -210 49 -55 c28 -31 52 -65 54 -76 8 -35
34 -267 41 -355 8 -111 -1 -101 -77 72 -68 156 -108 215 -167 245 -57 28 -80
20 -111 -41 -20 -39 -24 -64 -25 -134 0 -82 18 -192 32 -192 4 0 19 33 34 73
15 39 37 87 48 106 20 32 22 33 41 15 16 -14 80 -106 113 -162 5 -7 -1 -15
-16 -21 -53 -20 -88 -80 -88 -151 0 -93 62 -179 186 -256 81 -50 79 -47 89
-179 8 -108 25 -226 36 -250 5 -11 24 -110 43 -220 19 -110 42 -220 51 -245
32 -90 112 -206 225 -323 l65 -69 5 -140 5 -140 -90 -42 c-166 -78 -185 -107
-315 -491 l-81 -240 -77 -34 c-70 -32 -255 -122 -1232 -604 -369 -182 -741
-380 -865 -461 -156 -103 -258 -223 -344 -407 -60 -129 -164 -449 -255 -784
-69 -254 -71 -265 -60 -283 12 -21 353 -136 654 -221 481 -136 902 -226 1400
-300 36 -5 142 -21 235 -35 408 -60 1022 -116 1430 -130 583 -20 628 -20 622
0 -6 20 -32 166 -71 409 -48 298 -126 743 -132 761 -4 11 -44 102 -89 204 -45
102 -110 252 -145 334 l-63 149 16 46 c34 92 112 586 102 638 -5 27 -45 75
-183 219 -203 212 -351 378 -428 480 l-53 70 10 120 c6 65 14 200 18 299 8
174 8 176 9 58 2 -116 3 -123 22 -123 11 0 20 -4 20 -10 0 -5 15 -10 33 -10
36 0 61 28 51 57 -7 18 70 -94 234 -345 51 -78 100 -142 108 -142 8 0 14 -5
14 -11 0 -5 -5 -7 -12 -3 -13 8 -6 -5 31 -56 14 -19 27 -37 28 -39 2 -3 9 1
15 7 9 9 8 12 -4 12 -9 0 -24 14 -32 32 -20 38 -21 54 -3 39 8 -6 18 -7 22 -3
5 4 5 -1 2 -10 -4 -12 -2 -15 8 -12 8 3 25 -5 39 -19 14 -14 27 -23 29 -21 7
8 97 -63 90 -71 -5 -4 -3 -5 4 -1 7 4 63 -15 125 -42 151 -65 233 -86 311 -80
68 6 201 50 296 97 67 34 76 37 65 19 -4 -7 5 -1 20 14 16 15 32 25 36 23 5
-3 10 1 13 7 2 7 9 -3 15 -22 10 -34 10 -34 11 -6 1 21 5 27 16 22 8 -3 15 0
16 7 1 7 4 1 8 -13 7 -24 8 -23 37 20 17 25 44 65 61 90 29 42 168 260 218
340 54 88 78 119 86 114 5 -3 9 -2 8 3 -5 28 2 45 17 39 11 -4 14 -1 9 13 -4
14 3 24 28 40 19 12 42 21 51 21 10 0 17 7 15 18 -1 9 0 26 1 37 1 20 2 20 9
1 7 -19 8 -19 13 2 5 17 2 22 -12 22 -24 0 -16 36 10 43 16 4 17 -8 19 -177 1
-183 14 -366 26 -386 14 -22 -230 -306 -559 -650 -70 -72 -95 -106 -100 -132
-8 -45 7 -184 39 -358 14 -74 30 -162 36 -195 6 -33 17 -74 26 -92 15 -32 13
-36 -53 -200 -37 -92 -96 -230 -131 -306 -88 -192 -107 -258 -154 -542 -41
-251 -134 -785 -145 -839 l-6 -28 213 6 c916 28 1549 90 2434 237 509 85 974
201 1510 376 182 59 195 66 195 102 0 71 -233 847 -301 1005 -60 137 -114 221
-202 312 -93 98 -191 164 -448 302 -319 172 -1846 932 -1872 932 -7 0 -47 105
-91 238 -126 377 -157 424 -322 498 l-84 37 0 141 0 142 33 34 c133 141 238
294 267 389 12 37 36 155 53 260 l33 192 61 22 c70 25 157 82 148 97 -3 5 0 7
8 4 28 -10 182 209 201 286 5 20 3 20 -8 -5 -8 -16 -18 -29 -22 -27 -5 2 -11
-5 -15 -15 -6 -15 -8 -15 -8 -2 -1 9 -10 19 -21 22 -12 3 -20 14 -20 26 0 12
0 24 -1 29 0 4 10 10 23 14 19 5 17 6 -9 5 -18 -1 -33 -5 -33 -9 0 -4 -9 -17
-20 -28 -12 -12 -18 -25 -15 -30 4 -6 0 -10 -8 -10 -13 0 -68 -51 -70 -67 -1
-4 -5 -7 -9 -6 -8 3 -75 -39 -99 -62 -9 -8 -21 -15 -27 -15 -7 0 -12 -9 -12
-20 0 -33 -22 -171 -27 -166 -2 2 3 72 11 155 9 83 16 157 16 164 0 6 25 25
56 41 77 40 160 119 191 180 21 41 24 59 20 102 -7 63 -27 97 -78 127 l-38 23
46 70 c50 75 82 114 95 114 9 0 30 -46 69 -150 l27 -75 13 30 c9 20 13 75 14
160 0 107 -3 137 -19 168 -34 69 -100 59 -169 -27 -39 -50 -109 -186 -141
-277 -9 -25 -23 -54 -32 -65 -17 -22 -16 3 12 256 22 203 19 193 78 252 l54
53 11 202 c14 261 14 653 0 768 -24 200 -92 382 -204 551 -64 96 -205 256
-294 333 l-62 54 -33 -32 c-17 -17 -35 -31 -39 -31 -4 0 -19 -7 -32 -16 l-25
-16 58 -62 c118 -127 221 -319 258 -485 9 -41 18 -170 24 -341 12 -324 22
-433 55 -595 23 -109 25 -142 25 -367 0 -468 -52 -836 -170 -1198 -65 -200
-184 -371 -297 -429 l-43 -21 0 69 c0 134 -58 235 -162 282 -52 24 -56 24
-358 22 l-305 -2 30 25 c17 14 69 50 117 80 60 39 91 66 102 89 17 36 20 89 5
120 -7 17 -9 16 -8 -10 2 -54 1 -55 -27 -45 -52 20 -138 12 -221 -22 -109 -44
-196 -43 -308 2 -68 27 -89 31 -140 27 -33 -3 -68 -8 -77 -12 -16 -6 -18 -1
-19 41 0 43 -1 46 -10 24 -6 -14 -9 -47 -6 -73 5 -62 25 -81 159 -162 56 -34
101 -66 98 -70 -3 -5 -144 -9 -315 -9 l-310 -1 -54 -30 c-93 -51 -131 -121
-140 -258 l-6 -89 -64 43 c-193 129 -310 404 -400 940 -34 204 -51 428 -51
702 0 152 4 194 25 293 38 176 53 325 60 598 3 140 12 284 20 330 31 176 113
350 234 498 l75 91 -23 16 c-13 9 -40 31 -61 49 l-37 32 -74 -67z m-295 -2622
l6 -45 -35 50 c-41 57 -43 80 -13 137 l22 42 7 -70 c4 -38 10 -90 13 -114z
m3196 81 c0 -21 -46 -112 -56 -112 -5 0 1 78 12 170 l6 44 19 -39 c10 -22 18
-50 19 -63z m-826 -816 c32 -42 27 -143 -12 -281 -104 -369 -259 -550 -489
-571 l-73 -7 -14 35 c-20 46 -41 197 -33 229 4 17 29 40 80 72 81 51 118 85
82 74 -114 -34 -565 -35 -690 -1 -27 7 19 -29 104 -82 61 -37 66 -43 69 -79 4
-48 -14 -154 -35 -206 -14 -37 -18 -39 -58 -39 -63 0 -163 34 -233 79 -109 71
-189 196 -257 406 -70 212 -84 338 -42 378 l22 22 779 -1 780 0 20 -28z
m-1794 -1255 c0 -6 -4 -13 -10 -16 -5 -3 -10 1 -10 9 0 9 5 16 10 16 6 0 10
-4 10 -9z"/>
<path d="M4296 5691 c-11 -17 61 -62 187 -116 110 -47 224 -82 234 -71 2 2
-20 17 -49 34 -29 17 -62 38 -73 47 -19 15 -17 16 30 10 299 -33 593 -32 846
1 50 7 53 6 40 -10 -8 -9 -46 -35 -85 -56 -39 -22 -66 -40 -61 -40 6 0 71 20
144 45 125 41 268 109 301 141 12 12 10 14 -21 14 -20 0 -94 -9 -165 -19 -216
-32 -544 -45 -799 -32 -182 10 -400 35 -501 58 -12 2 -25 0 -28 -6z"/>
<path d="M4043 7475 c-29 -8 -70 -23 -90 -34 -61 -31 -156 -139 -203 -231 -12
-24 -12 -24 6 -9 33 29 120 68 201 91 62 17 105 22 208 22 l130 1 43 -39 c23
-22 42 -45 42 -53 0 -9 -14 -13 -42 -13 -103 -1 -258 -58 -338 -125 -23 -19
-38 -35 -34 -35 4 0 15 6 23 14 30 27 140 76 203 90 116 26 180 29 254 11 88
-22 106 -37 22 -19 -80 17 -153 17 -250 0 -101 -19 -175 -60 -270 -151 l-76
-74 58 4 c47 4 67 0 97 -16 l38 -21 -29 25 c-35 30 -31 39 47 90 75 49 87 52
75 19 -8 -22 -5 -38 16 -85 22 -50 31 -60 72 -79 54 -24 138 -21 180 7 34 22
64 87 64 140 0 25 4 45 8 45 11 0 115 -69 160 -106 23 -19 32 -22 32 -12 0 20
-93 151 -126 177 -38 30 -18 26 41 -8 47 -27 131 -108 165 -158 14 -21 17 -22
45 -8 25 13 31 23 33 52 2 20 5 40 7 44 11 16 -17 117 -45 162 -21 35 -28 55
-24 76 7 34 -28 120 -61 151 -38 36 -202 60 -435 65 -152 4 -206 2 -247 -10z
m225 -487 c30 -30 0 -78 -37 -58 -20 10 -29 49 -14 63 10 11 38 8 51 -5z"/>
<path d="M5670 7483 c-79 -9 -273 -44 -282 -49 -15 -10 -68 -126 -68 -151 0
-12 5 -25 11 -29 7 -4 1 -16 -15 -33 -40 -42 -59 -98 -62 -189 -2 -53 0 -81 6
-77 6 3 10 1 10 -4 0 -15 43 -14 59 2 11 10 13 9 7 -3 -4 -8 3 -2 16 14 111
142 219 195 414 203 133 6 203 -12 324 -83 l75 -44 -40 36 c-76 68 -225 124
-329 124 -23 0 -45 3 -49 6 -8 9 32 72 62 95 24 19 35 21 131 16 134 -6 233
-31 337 -83 46 -23 83 -38 83 -34 0 18 -103 151 -152 195 -85 78 -122 88 -328
91 -96 1 -191 0 -210 -3z"/>
<path d="M5695 7153 c-115 -22 -146 -36 -191 -86 -40 -45 -94 -133 -94 -154 0
-4 12 5 28 19 43 41 174 128 183 122 5 -3 4 -14 -1 -24 -12 -23 0 -89 24 -125
30 -46 64 -60 147 -60 68 0 80 3 104 25 30 28 60 120 51 156 -4 13 -4 24 -1
24 11 0 70 -32 117 -63 52 -34 61 -61 26 -70 -12 -4 -20 -9 -17 -12 3 -3 28 2
55 10 29 9 63 12 84 8 32 -6 34 -5 21 11 -25 30 -165 142 -211 169 -25 14 -66
31 -93 37 -51 11 -199 20 -232 13z m25 -168 c18 -22 8 -50 -19 -50 -32 0 -49
28 -32 49 17 20 35 20 51 1z"/>
<path d="M7006 6375 c-9 -26 -7 -32 5 -12 6 10 9 21 6 23 -2 3 -7 -2 -11 -11z"/>
<path d="M6975 6310 c4 -6 11 -8 16 -5 14 9 11 15 -7 15 -8 0 -12 -5 -9 -10z"/>
<path d="M3240 6301 c0 -6 4 -13 10 -16 6 -3 7 1 4 9 -7 18 -14 21 -14 7z"/>
<path d="M3200 6150 c0 -27 98 -142 113 -133 6 4 7 1 3 -6 -5 -8 -1 -14 11
-17 10 -3 23 -15 28 -27 9 -19 127 -97 148 -97 4 0 0 11 -10 23 -10 14 -25 22
-34 20 -9 -3 -23 3 -32 11 -8 9 -21 16 -27 16 -7 0 -9 7 -6 16 3 9 6 18 6 20
0 2 8 4 17 4 15 0 15 1 -1 13 -10 8 -29 12 -41 9 -13 -2 -26 1 -29 7 -4 6 -2
11 3 11 6 0 11 5 11 10 0 6 -11 10 -25 10 -14 0 -25 5 -25 11 0 6 -9 9 -19 6
-12 -3 -22 1 -25 10 -3 8 -1 11 4 8 6 -3 10 -1 10 6 0 9 4 8 15 -1 12 -10 12
-7 -1 19 -16 33 -32 39 -52 19 -9 -9 -12 -9 -12 0 0 7 5 12 11 12 6 0 9 5 7
12 -4 12 -48 19 -48 8z"/>
<path d="M5564 3725 c-9 -21 -2 -26 13 -10 8 9 9 16 3 20 -6 3 -13 -1 -16 -10z"/>
<path d="M5526 3665 c4 -8 7 -15 9 -15 2 0 5 7 9 15 3 9 0 15 -9 15 -9 0 -12
-6 -9 -15z"/>
</g>
</svg>
